<svg width="75" height="18" viewBox="0 0 75 18" fill="none" xmlns="http://www.w3.org/2000/svg">
<path d="M61.3848 14.459C61.4984 14.3169 61.6156 14.1856 61.7611 14.0826C62.1375 13.8234 62.5351 13.7737 62.9541 13.9655C63.16 14.0613 63.27 14.1998 63.412 14.4909C63.444 14.4838 63.4476 14.4518 63.4618 14.4305C63.7742 13.9335 64.431 13.7134 64.9777 13.9264C65.3576 14.0755 65.56 14.3666 65.6168 14.7643C65.631 14.853 65.6346 14.9418 65.6346 15.0341C65.6346 15.8507 65.6346 16.6708 65.6346 17.4874C65.6346 17.5513 65.6203 17.5655 65.5564 17.5655C65.418 17.5619 65.2795 17.5619 65.1446 17.5655C65.0807 17.569 65.0665 17.5477 65.0665 17.4874C65.07 16.7134 65.0665 15.943 65.0665 15.169C65.0665 15.0483 65.07 14.9276 65.0416 14.8104C64.9387 14.427 64.5375 14.2317 64.147 14.3666C63.7742 14.498 63.515 14.8601 63.515 15.272C63.5115 16.0033 63.5115 16.7383 63.515 17.4696C63.515 17.5442 63.4973 17.5655 63.4227 17.5619C63.2913 17.5548 63.1564 17.5548 63.0251 17.5619C62.9541 17.5655 62.9434 17.5406 62.9434 17.4767C62.947 16.6779 62.9434 15.8755 62.9434 15.0767C62.9434 14.956 62.9363 14.8353 62.8972 14.7217C62.7801 14.3879 62.4393 14.2388 62.0807 14.3595C61.6724 14.498 61.3919 14.8814 61.3919 15.3075C61.3919 16.0317 61.3919 16.7525 61.3919 17.4767C61.3919 17.5477 61.3706 17.5619 61.3032 17.5619C61.1682 17.5584 61.0333 17.5584 60.8984 17.5619C60.8381 17.5655 60.8203 17.5477 60.8203 17.4838C60.8239 16.9584 60.8203 16.4329 60.8203 15.9075C60.8203 15.2755 60.8203 14.6471 60.8203 14.0152C60.8203 13.9584 60.8345 13.9406 60.8949 13.9406C61.0333 13.9442 61.1718 13.9442 61.3067 13.9406C61.3706 13.9371 61.3955 13.9513 61.3919 14.0187C61.3777 14.1749 61.3848 14.3169 61.3848 14.459Z" fill="white"/>
<path d="M51.2702 14.0506C51.185 14.0506 51.0998 14.0506 51.0146 14.0506C50.9791 14.0506 50.9649 14.0435 50.9543 14.0045C50.83 13.4542 50.3898 13.0565 49.7365 13.0104C49.2963 12.9784 48.888 13.0601 48.5365 13.3441C48.217 13.5997 48.0252 13.937 47.9329 14.3275C47.7838 14.9488 47.7945 15.563 48.0608 16.156C48.2951 16.6743 48.6927 17.008 49.2643 17.1003C49.6051 17.1571 49.9389 17.1358 50.2549 16.9832C50.7057 16.7631 50.9259 16.3796 51.0075 15.9039C51.0324 15.7512 51.0288 15.7512 51.1886 15.7512C51.3235 15.7512 51.4584 15.7512 51.5933 15.7512C51.6253 15.7512 51.6537 15.7477 51.6501 15.7974C51.5827 16.5074 51.2915 17.0861 50.6454 17.4447C50.3791 17.5938 50.0844 17.6506 49.7827 17.6755C49.2111 17.7181 48.675 17.6116 48.1992 17.2743C47.7696 16.969 47.4927 16.5465 47.3436 16.0494C47.1093 15.2613 47.127 14.4802 47.4892 13.7346C47.8548 12.9749 48.4797 12.5559 49.3211 12.4743C49.7614 12.4317 50.1909 12.4778 50.5957 12.6766C51.1531 12.9465 51.462 13.4045 51.5756 14.0045C51.5827 14.04 51.5791 14.0577 51.533 14.0577C51.4442 14.0471 51.3554 14.0506 51.2702 14.0506Z" fill="white"/>
<path d="M43.3814 11.8033C43.2678 10.7773 42.824 9.91808 42.0926 9.20092C41.6346 8.75003 41.0879 8.42695 40.5198 8.13937C39.7494 7.74884 38.9186 7.50741 38.1056 7.23049C37.5553 7.04232 36.9908 6.89321 36.444 6.70149C36.0109 6.54883 35.5813 6.38551 35.1908 6.13344C34.8215 5.89557 34.5233 5.60799 34.4417 5.15C34.4062 4.94763 34.4559 4.75237 34.463 4.55355C34.605 4.07426 34.9316 3.74763 35.3576 3.5133C35.805 3.26833 36.2914 3.16892 36.7955 3.12987C37.8109 3.05531 38.702 3.31449 39.3908 4.09911C39.7032 4.45414 39.9163 4.86243 40.0867 5.29912C40.1932 5.56539 40.3174 5.64705 40.5589 5.57604C41.3222 5.34527 42.0855 5.10385 42.8453 4.85888C43.0583 4.79142 43.1257 4.64231 43.0796 4.42929C43.0512 4.30858 43.0157 4.19142 42.9766 4.07426C42.3944 2.24584 41.2157 0.978376 39.3802 0.381922C37.7754 -0.136424 36.1458 -0.118673 34.5446 0.406775C32.9683 0.928672 31.8002 1.91211 31.2428 3.52396C31.218 3.59496 31.1825 3.66597 31.1647 3.73698C31.0156 4.31568 30.9872 4.89793 31.0511 5.49083C31.1683 6.57368 31.6405 7.46836 32.4677 8.17843C33.1493 8.76068 33.9482 9.14056 34.7789 9.46009C35.6949 9.81157 36.6429 10.0636 37.5695 10.3832C38.2121 10.6033 38.8512 10.8341 39.3944 11.2637C40.1683 11.8743 40.2393 12.9004 39.5541 13.6104C39.1387 14.04 38.6133 14.2743 38.0452 14.4128C37.3991 14.569 36.7458 14.5726 36.0926 14.4873C34.9813 14.3418 33.9659 13.9619 33.0535 13.3051C32.7198 13.0637 32.4286 12.7832 32.1695 12.4672C31.9813 12.2364 31.7576 12.0944 31.4416 12.1015C30.7848 12.1157 30.128 12.1228 29.4712 12.1051C29.0984 12.0944 28.8286 12.2471 28.5943 12.5134C28.1114 13.0601 27.5398 13.4933 26.8866 13.8199C25.4736 14.5299 23.9824 14.711 22.438 14.4057C20.9966 14.1217 19.8427 13.3796 19.0617 12.1228C18.6569 11.4731 18.4084 10.7524 18.3161 9.98554C18.2877 9.74767 18.2913 9.74767 18.5327 9.74767C20.8475 9.74767 23.1587 9.74412 25.4735 9.74412C26.7233 9.74412 27.9694 9.74412 29.2191 9.74412C29.5955 9.74412 29.8156 9.5879 29.9328 9.22932C30.1564 8.55476 30.2203 7.866 30.1813 7.15593C30.1351 6.33226 30.0073 5.52634 29.7375 4.74882C29.0132 2.65413 27.6357 1.18429 25.5304 0.442278C24.444 0.0588433 23.315 -0.0476662 22.1611 0.0304408C21.1741 0.0978969 20.2226 0.310916 19.3173 0.715653C17.6309 1.46832 16.4025 2.69318 15.5966 4.34763C15.2486 5.06124 15.0214 5.81746 14.8758 6.59498C14.8581 6.69794 14.8155 6.737 14.7125 6.7299C14.4995 6.71569 14.2865 6.72279 14.077 6.71569C13.896 6.70859 13.8818 6.63404 13.8853 6.49202C13.8995 5.62219 13.8178 4.75947 13.5587 3.92514C13.1149 2.48371 12.2557 1.39021 10.8888 0.715653C10.0013 0.278963 9.05332 0.0872459 8.06988 0.0233402C6.68525 -0.0689682 5.34323 0.104998 4.07222 0.680149C2.51718 1.39021 1.40948 2.54407 0.738467 4.11686C0.603554 4.43284 0.678111 4.5997 0.99409 4.73106C1.26036 4.84112 1.53019 4.94763 1.80001 5.05059C2.2509 5.22456 2.70179 5.40563 3.15623 5.57249C3.44736 5.679 3.57872 5.61509 3.72074 5.34882C3.81304 5.1784 3.90535 5.00444 4.00831 4.84112C4.42015 4.17011 4.9456 3.62336 5.70891 3.35354C6.50064 3.07662 7.31721 3.02691 8.13733 3.17957C9.07462 3.35354 9.79533 3.84348 10.2143 4.72396C10.5018 5.32397 10.5267 5.96303 10.5125 6.60918C10.5089 6.70504 10.4521 6.70149 10.3847 6.70859C10.0829 6.737 9.78113 6.7299 9.48291 6.7299C8.15864 6.71924 6.83792 6.76895 5.5314 7.02102C4.44145 7.23049 3.39056 7.55712 2.43552 8.14647C1.26746 8.87074 0.482844 9.87193 0.152664 11.2175C0.0781071 11.5264 0.0568051 11.8424 0 12.1548C0 12.4246 0 12.698 0 12.9678C0.0603555 13.3193 0.088758 13.6779 0.188167 14.0223C0.436689 14.8956 0.88048 15.6554 1.54794 16.2767C2.38227 17.0578 3.38701 17.4732 4.50536 17.6436C4.62607 17.6613 4.75033 17.6507 4.86394 17.711C5.26513 17.711 5.66986 17.711 6.07105 17.711C6.38703 17.6365 6.71011 17.6187 7.02253 17.5442C8.3681 17.2282 9.56456 16.6388 10.5338 15.6341C10.5516 15.6163 10.5622 15.595 10.6013 15.5347C10.6439 15.9252 10.6794 16.2661 10.7184 16.6069C10.7397 16.788 10.7575 16.969 10.7859 17.1501C10.8249 17.3986 10.9456 17.5051 11.1977 17.4945C11.9646 17.4661 12.735 17.4767 13.5019 17.4661C13.8178 17.4625 13.9421 17.3489 13.9492 17.0329C13.9528 16.7489 13.9386 16.4649 13.9386 16.1844C13.9315 14.0897 13.9279 11.995 13.9137 9.90033C13.9137 9.74767 13.9457 9.70506 14.1054 9.69796C14.2865 9.69086 14.4711 9.68376 14.6522 9.67666C14.7551 9.67311 14.7906 9.71216 14.8048 9.81867C15.0569 11.9134 15.806 13.7844 17.322 15.3004C18.5185 16.4968 19.9741 17.2069 21.6286 17.5335C21.9765 17.601 22.328 17.6471 22.6794 17.6755C22.7079 17.6791 22.7398 17.6791 22.7576 17.7075C23.3008 17.7075 23.8475 17.7075 24.3907 17.7075C24.6534 17.6365 24.9233 17.6436 25.1931 17.6116C26.7588 17.4199 28.186 16.8696 29.4712 15.9572C29.7375 15.769 29.9931 15.5702 30.2416 15.3643C30.3623 15.2649 30.4333 15.2542 30.5576 15.3714C31.5055 16.259 32.5813 16.93 33.8346 17.3027C34.5233 17.5051 35.2263 17.6187 35.9363 17.6755C35.9825 17.6791 36.0322 17.6613 36.0677 17.7075C36.6003 17.7075 37.1328 17.7075 37.6654 17.7075C37.6938 17.6649 37.7399 17.6755 37.779 17.6755C38.0736 17.6507 38.3648 17.6116 38.6559 17.5513C39.6393 17.3418 40.5589 16.9903 41.3825 16.3868C42.0784 15.8791 42.618 15.2613 42.9837 14.4909C43.3849 13.6388 43.4879 12.737 43.3814 11.8033ZM18.3445 6.59853C18.5788 5.48373 19.1149 4.5642 20.0593 3.90384C20.7623 3.4139 21.554 3.17957 22.4061 3.11212C23.212 3.04821 23.9895 3.15117 24.7173 3.50265C25.9777 4.11686 26.6913 5.13225 26.8688 6.51688C26.9008 6.76185 26.8972 6.7654 26.6523 6.7654C25.8712 6.7654 25.0901 6.7654 24.309 6.7654C24.309 6.7654 24.309 6.7654 24.309 6.76185C23.5457 6.76185 22.7824 6.7796 22.0191 6.7583C20.8368 6.72279 19.6546 6.7512 18.4723 6.737C18.3623 6.74055 18.3161 6.73345 18.3445 6.59853ZM7.2391 14.3666C6.84857 14.4838 6.44383 14.5406 6.0462 14.5264C5.28643 14.5441 4.59411 14.3702 4.02961 13.8696C3.73494 13.6104 3.53257 13.266 3.45801 12.8613C3.3515 12.2932 3.36925 11.7465 3.67103 11.2388C3.86985 10.9086 4.17518 10.685 4.50536 10.5003C5.12311 10.156 5.80122 9.99974 6.48999 9.88613C7.77875 9.67311 9.07817 9.69796 10.3776 9.70506C10.4592 9.70506 10.5089 9.71571 10.5089 9.81867C10.5018 11.7891 9.37995 13.7347 7.2391 14.3666Z" fill="white"/>
<path d="M66.803 17.079C66.803 17.2388 66.7995 17.3737 66.803 17.5121C66.803 17.5583 66.7888 17.5725 66.7427 17.5689C66.5971 17.5654 66.4516 17.5654 66.306 17.5689C66.2421 17.5725 66.2314 17.5476 66.2314 17.4944C66.2314 16.6352 66.2314 15.7725 66.2314 14.9133C66.2314 14.1642 66.2314 13.4186 66.2314 12.6695C66.2314 12.5701 66.2314 12.5701 66.338 12.5701C66.4658 12.5701 66.5936 12.5736 66.7214 12.5701C66.7817 12.5665 66.7995 12.5807 66.7995 12.6482C66.7959 13.2269 66.7995 13.802 66.7995 14.3807C66.7995 14.4056 66.7995 14.4269 66.7995 14.4482C66.8279 14.4518 66.8314 14.434 66.8385 14.4233C67.4599 13.5464 68.919 13.692 69.3415 14.7784C69.4906 15.1583 69.5332 15.5524 69.5119 15.9535C69.4942 16.2766 69.4303 16.5855 69.2812 16.8766C68.9758 17.466 68.4113 17.718 67.7687 17.6577C67.3782 17.6222 67.0729 17.4376 66.8385 17.1287C66.8385 17.1145 66.8279 17.1074 66.803 17.079ZM68.9403 15.7015C68.9368 15.4352 68.8942 15.1121 68.7273 14.8139C68.6102 14.6044 68.4433 14.4411 68.2054 14.3772C67.7687 14.26 67.2149 14.3843 66.9486 14.9204C66.7853 15.2506 66.7498 15.6021 66.7746 15.9642C66.7959 16.2305 66.8528 16.4896 67.0054 16.7133C67.2539 17.0861 67.6161 17.2281 68.0492 17.1784C68.4468 17.1358 68.6776 16.8802 68.8161 16.5251C68.9119 16.2802 68.9403 16.0245 68.9403 15.7015Z" fill="white"/>
<path d="M73.3854 17.033C73.1901 17.2815 72.9345 17.4448 72.6469 17.562C72.196 17.7466 71.7593 17.6969 71.3546 17.4448C71.0209 17.2318 70.9321 16.8945 70.9605 16.5146C70.996 16.046 71.2765 15.7833 71.6954 15.6377C71.9901 15.5383 72.299 15.4957 72.6043 15.4424C72.7499 15.4176 72.8954 15.3963 73.0375 15.3537C73.3641 15.2578 73.467 15.059 73.3641 14.704C73.3073 14.5016 73.1511 14.388 72.9558 14.3312C72.6966 14.2602 72.4339 14.2602 72.1783 14.3383C71.873 14.4306 71.7096 14.6578 71.6919 14.9951C71.6883 15.0626 71.6706 15.0839 71.6031 15.0803C71.4718 15.0732 71.3369 15.0768 71.2055 15.0803C71.1451 15.0839 71.138 15.0626 71.1416 15.0057C71.2055 14.4022 71.5215 14.0401 72.1144 13.9051C72.4659 13.8235 72.8209 13.8341 73.1724 13.93C73.6446 14.0614 73.9144 14.4164 73.9179 14.9205C73.925 15.5099 73.9215 16.1028 73.9215 16.6922C73.9215 16.7738 73.925 16.8519 73.9499 16.93C73.996 17.0862 74.0848 17.1466 74.241 17.1111C74.3191 17.0933 74.3333 17.1111 74.3298 17.1856C74.3227 17.278 74.3262 17.3703 74.3298 17.4626C74.3298 17.4981 74.3191 17.5158 74.2836 17.5265C74.0955 17.5833 73.9073 17.5833 73.7227 17.5087C73.5381 17.4306 73.4528 17.2744 73.4102 17.0862C73.4067 17.072 73.4031 17.0578 73.3996 17.0436C73.396 17.0436 73.396 17.0436 73.3854 17.033ZM73.4102 15.6448C73.3357 15.6874 73.2753 15.7194 73.2079 15.7442C72.9381 15.8472 72.654 15.8933 72.3735 15.9537C72.1818 15.9927 71.9866 16.0282 71.8161 16.1419C71.5783 16.3016 71.5179 16.5359 71.5712 16.7987C71.6173 17.0365 71.7877 17.1537 72.0114 17.1998C72.1889 17.2389 72.3629 17.2389 72.5404 17.2105C72.9771 17.1466 73.3215 16.82 73.3925 16.3904C73.4351 16.149 73.3996 15.904 73.4102 15.6448Z" fill="white"/>
<path d="M55.4452 15.7619C55.4417 16.2412 55.3245 16.6886 55.0121 17.0649C54.6215 17.5335 54.1103 17.7075 53.5103 17.6542C52.8038 17.5939 52.1718 17.0826 51.9979 16.227C51.8807 15.6377 51.9553 15.0732 52.3032 14.5726C52.6724 14.04 53.1979 13.8234 53.8405 13.859C54.5541 13.898 55.25 14.4057 55.4133 15.3607C55.4346 15.4921 55.4488 15.627 55.4452 15.7619ZM52.5304 15.769C52.534 15.9785 52.5588 16.1951 52.6298 16.4045C52.7967 16.8874 53.1659 17.1714 53.6559 17.1856C54.1529 17.1998 54.547 16.9548 54.7281 16.4862C54.9198 15.9962 54.9198 15.4992 54.721 15.0093C54.5363 14.5584 54.1636 14.3134 53.6949 14.3205C53.2192 14.324 52.8464 14.5761 52.6653 15.0199C52.5659 15.2578 52.5304 15.5028 52.5304 15.769Z" fill="white"/>
<path d="M60.3946 15.7619C60.3911 16.2412 60.2739 16.6885 59.9615 17.0649C59.571 17.5335 59.0597 17.7075 58.4633 17.6578C57.7567 17.5974 57.1248 17.0897 56.9508 16.2305C56.8301 15.6412 56.9047 15.0767 57.2526 14.5725C57.6218 14.04 58.1473 13.8199 58.7899 13.8554C59.5071 13.8944 60.2029 14.4057 60.3627 15.3571C60.384 15.4921 60.3982 15.627 60.3946 15.7619ZM57.4798 15.7583C57.4834 15.9785 57.5082 16.195 57.5828 16.408C57.7496 16.8873 58.1189 17.1714 58.6017 17.1891C59.1023 17.2069 59.4929 16.9619 59.6775 16.4968C59.8727 16.0033 59.8727 15.4992 59.6704 15.0057C59.4858 14.5619 59.1449 14.324 58.655 14.324C58.165 14.324 57.8242 14.5619 57.6289 15.0057C57.5153 15.2435 57.4834 15.4992 57.4798 15.7583Z" fill="white"/>
<path d="M56.45 15.066C56.45 15.8719 56.45 16.6814 56.45 17.4873C56.45 17.5548 56.4323 17.5725 56.3684 17.569C56.2299 17.5619 56.0914 17.5654 55.9565 17.569C55.8997 17.569 55.882 17.5548 55.882 17.4944C55.8855 16.9299 55.882 16.3654 55.882 15.8009C55.882 14.7536 55.882 13.7062 55.8784 12.6589C55.8784 12.5808 55.9033 12.563 55.9743 12.5666C56.1092 12.5737 56.2441 12.5701 56.379 12.5666C56.4358 12.563 56.45 12.5808 56.45 12.6376C56.45 13.4471 56.45 14.2565 56.45 15.066Z" fill="white"/>
<path d="M69.9736 15.7583C69.9736 15.1796 69.9736 14.6044 69.9736 14.0257C69.9736 13.9654 69.9914 13.9512 70.0482 13.9547C70.1938 13.9583 70.3393 13.9583 70.4849 13.9547C70.531 13.9547 70.5417 13.9689 70.5417 14.0115C70.5417 15.176 70.5417 16.3405 70.5417 17.5086C70.5417 17.5583 70.5275 17.5725 70.4778 17.5725C70.3322 17.569 70.1867 17.569 70.0411 17.5725C69.9807 17.5761 69.9736 17.5548 69.9736 17.5015C69.9736 16.9192 69.9736 16.337 69.9736 15.7583Z" fill="white"/>
<path d="M70.5697 13.3122C70.5697 13.4152 70.5697 13.5181 70.5697 13.6211C70.5697 13.6566 70.5626 13.6708 70.5235 13.6708C70.3567 13.6672 70.1898 13.6672 70.0265 13.6708C69.991 13.6708 69.9839 13.6566 69.9839 13.6246C69.9839 13.4152 69.9839 13.2057 69.9839 12.9962C69.9839 12.9643 69.9874 12.9465 70.03 12.9465C70.1934 12.9501 70.3567 12.9501 70.52 12.9465C70.5626 12.9465 70.5732 12.9607 70.5697 12.9998C70.5661 13.1027 70.5697 13.2057 70.5697 13.3122Z" fill="white"/>
</svg>
