<svg width="98" height="53" viewBox="0 0 98 53" fill="none" xmlns="http://www.w3.org/2000/svg">
<path d="M54.3719 30.8158C54.3719 34.3171 50.3704 35.6876 46.8657 35.6876C40.6634 35.6876 36.9253 32.2163 36.9253 26.0173C36.9253 19.6816 41.0635 17.2773 47.3992 17.2773C51.0673 17.2773 55.1722 18.4111 55.1722 22.0792C55.1722 26.5842 51.204 27.3178 46.699 27.3178C46.1515 27.3204 45.6048 27.2758 45.065 27.1844C45.2651 29.5186 46.1654 30.8858 48.7031 30.8858C50.4704 30.8858 52.4378 30.3189 53.3382 28.7517C54.0718 29.1151 54.3719 30.0021 54.3719 30.8158ZM45.035 25.6805C45.2226 25.7082 45.4123 25.7194 45.6019 25.7139C47.4026 25.6805 48.4063 24.38 48.4063 21.9758C48.4063 20.7753 48.1729 19.3415 46.9691 19.3415C45.0984 19.3315 45.0017 23.6431 45.0317 25.6672L45.035 25.6805Z" fill="white"/>
<path d="M76.1637 34.6172C75.2967 35.2208 73.496 35.4542 72.4957 35.4542C70.1614 35.4542 68.4942 34.8873 67.5938 33.4834C66.3934 35.1507 64.7928 35.6876 62.722 35.6876C57.7534 35.6876 56.1528 31.3526 56.1528 26.3508C56.1528 20.0784 59.7875 17.2773 66.0599 17.2773H67.127V11.6085L75.13 10.8082V30.4823C75.0792 31.9304 75.4374 33.3634 76.1637 34.6172ZM66.1599 19.2781C64.3593 19.2781 64.1925 23.1129 64.1925 26.184C64.1925 29.1852 64.0925 32.9866 65.6931 32.9866C66.9936 32.9866 67.127 31.0525 67.127 29.752V19.6416C66.8619 19.4005 66.5149 19.2693 66.1566 19.2748L66.1599 19.2781Z" fill="white"/>
<path d="M83.5329 35.6877C79.9649 35.6877 76.7637 34.2505 76.7637 30.6491C76.7637 25.8806 83.1327 25.4138 88.0713 25.4138V22.576C88.0713 21.0755 88.0379 19.2415 86.3039 19.2415C84.7033 19.2415 84.2698 20.9088 84.2698 22.7761C84.2698 23.343 84.3032 23.9766 84.3365 24.5435C83.5913 24.7812 82.8145 24.9048 82.0323 24.9103C79.8982 24.9103 77.9641 23.9766 77.9641 22.0092C77.9641 18.1077 83.803 17.274 86.6341 17.274C91.8027 17.274 96.0743 18.7746 96.0743 23.9432V30.4824C96.0235 31.9304 96.3817 33.3635 97.108 34.6173C96.241 35.2208 94.4403 35.4542 93.47 35.4542C91.1024 35.4542 89.6685 34.8874 88.8015 33.817C87.1042 35.5209 85.2035 35.6877 83.5329 35.6877ZM88.0713 30.0189V27.0844C85.537 27.0844 84.57 28.1515 84.57 30.519C84.57 31.8862 84.9701 33.2534 86.3373 33.2534C87.7712 33.2501 88.0713 31.4494 88.0713 30.0022V30.0189Z" fill="white"/>
<path d="M46.1619 32.5765C45.8672 32.2217 45.5485 31.8874 45.2082 31.5761C44.6332 33.5901 43.7088 35.4875 42.4772 37.1816C40.696 39.6124 38.3645 41.5868 35.6734 42.9431C32.9823 44.2994 30.0082 44.9989 26.9947 44.9845C16.5474 44.9845 8.07753 36.7948 8.07753 26.6943C8.07753 17.1507 15.6437 9.31439 25.2907 8.48408C25.8542 8.43406 26.4211 8.40738 26.9947 8.40738C28.2251 8.40384 29.4531 8.51548 30.6627 8.74084V5.73971C29.4099 5.5183 28.1402 5.40672 26.868 5.40625C26.3411 5.40625 25.8209 5.43293 25.3007 5.46961C14.1131 6.27324 5.31982 15.4234 5.31982 26.6042C5.31982 38.302 14.9635 47.7856 26.8579 47.7856C30.6263 47.8007 34.3329 46.8289 37.6091 44.9667C40.8852 43.1046 43.6166 40.4171 45.5317 37.1716C46.2793 35.8712 46.8842 34.4938 47.3357 33.0633C47.1159 33.0771 46.8958 33.0404 46.6924 32.956C46.4889 32.8716 46.3075 32.7418 46.1619 32.5765Z" fill="white"/>
<path d="M42.5408 44.2443C39.1926 47.1652 35.1004 49.101 30.7186 49.8368C26.3367 50.5726 21.8367 50.0796 17.7181 48.4125C5.41012 43.484 -0.638828 29.6688 4.20967 17.5709C8.8781 5.94647 21.883 0.127611 33.8075 4.05242L34.8846 1.36141C30.4113 -0.130571 25.621 -0.401917 21.0079 0.575371C16.3948 1.55266 12.126 3.74318 8.64199 6.92089C5.15802 10.0986 2.58507 14.1484 1.18864 18.6524C-0.207792 23.1564 -0.377114 27.9514 0.698143 32.5427C1.7734 37.134 4.05429 41.3552 7.30544 44.7707C10.5566 48.1863 14.6602 50.6724 19.1929 51.9727C23.7256 53.2729 28.5232 53.3401 33.0905 52.1674C37.6579 50.9947 41.8296 48.6244 45.1751 45.3013L42.5408 44.2443Z" fill="white"/>
<path d="M21.5996 39.0823C14.687 36.3145 11.2624 28.655 13.9301 21.9725C14.8044 19.828 16.2374 17.9571 18.08 16.5543C19.9226 15.1515 22.1075 14.2681 24.4073 13.9961L25.4511 11.3951C19.4188 11.6319 13.8667 15.2066 11.5425 21.0121C8.35462 28.9718 12.4428 38.0919 20.6759 41.3898C22.8187 42.2598 25.1227 42.6616 27.4335 42.5685C29.7443 42.4753 32.0085 41.8893 34.0743 40.8496L30.693 39.4957C27.7037 40.4007 24.4945 40.2547 21.5996 39.0823Z" fill="white"/>
<path d="M27.4615 26.0007C27.4615 28.9218 28.1584 30.9126 31.1095 30.9126C32.7768 30.9126 33.8972 30.0489 34.7276 28.555C35.5879 28.6884 36.0847 29.6854 36.0847 30.5558C36.0847 34.1404 32.8669 35.701 29.2855 35.701C23.2132 35.701 19.3984 32.4831 19.3984 26.4109C19.3984 20.472 23.48 17.3875 29.4189 17.3875C32.9335 17.3875 36.5516 18.6146 36.5516 21.8658C36.5516 24.3201 34.194 25.3138 32.2166 25.3138C31.5128 25.3313 30.8186 25.1473 30.2159 24.7836C30.2492 24.02 30.2825 23.2263 30.2825 22.5294C30.2825 20.7687 30.0858 19.4082 29.1221 19.4082C27.6249 19.3949 27.4615 23.6431 27.4615 26.0007Z" fill="white"/>
</svg>
