<svg width="217" height="119" viewBox="0 0 217 119" fill="none" xmlns="http://www.w3.org/2000/svg">
<path d="M121.501 68.8617C121.501 76.6859 112.559 79.7485 104.727 79.7485C90.8674 79.7485 82.5142 71.9914 82.5142 58.1389C82.5142 43.981 91.7616 38.6084 105.92 38.6084C114.116 38.6084 123.289 41.1419 123.289 49.3386C123.289 59.4057 114.422 61.0451 104.355 61.0451C103.131 61.051 101.91 60.9513 100.703 60.747C101.151 65.9631 103.162 69.0182 108.833 69.0182C112.782 69.0182 117.179 67.7515 119.191 64.2492C120.83 65.0614 121.501 67.0436 121.501 68.8617ZM100.636 57.3863C101.056 57.4483 101.48 57.4732 101.903 57.4609C105.927 57.3863 108.17 54.4802 108.17 49.1077C108.17 46.4251 107.648 43.2209 104.958 43.2209C100.778 43.1986 100.562 52.8334 100.629 57.3565L100.636 57.3863Z" fill="url(#paint0_linear_372_60)"/>
<path d="M170.197 77.3567C168.26 78.7055 164.236 79.2271 162.001 79.2271C156.784 79.2271 153.059 77.9603 151.047 74.8232C148.364 78.549 144.787 79.7487 140.16 79.7487C129.057 79.7487 125.48 70.0617 125.48 58.8843C125.48 44.8679 133.603 38.6086 147.619 38.6086H150.004V25.941L167.887 24.1526V68.1168C167.774 71.3527 168.574 74.555 170.197 77.3567ZM147.843 43.0796C143.819 43.0796 143.446 51.6489 143.446 58.5117C143.446 65.2181 143.223 73.7129 146.799 73.7129C149.705 73.7129 150.004 69.391 150.004 66.4849V43.8918C149.411 43.353 148.636 43.06 147.835 43.0721L147.843 43.0796Z" fill="url(#paint1_linear_372_60)"/>
<path d="M186.665 79.7488C178.692 79.7488 171.538 76.5372 171.538 68.4895C171.538 57.8338 185.771 56.7906 196.806 56.7906V50.4493C196.806 47.0961 196.732 42.9977 192.857 42.9977C189.28 42.9977 188.312 46.7235 188.312 50.8964C188.312 52.1632 188.386 53.579 188.461 54.8457C186.795 55.3769 185.059 55.6533 183.312 55.6654C178.543 55.6654 174.221 53.579 174.221 49.1825C174.221 40.4642 187.268 38.6013 193.595 38.6013C205.145 38.6013 214.69 41.9545 214.69 53.5044V68.117C214.576 71.3528 215.377 74.5552 217 77.3569C215.063 78.7056 211.039 79.2272 208.87 79.2272C203.58 79.2272 200.376 77.9605 198.438 75.5685C194.645 79.3763 190.398 79.7488 186.665 79.7488ZM196.806 67.0812V60.5238C191.143 60.5238 188.982 62.9083 188.982 68.1989C188.982 71.2541 189.876 74.3092 192.932 74.3092C196.136 74.3018 196.806 70.2779 196.806 67.0439V67.0812Z" fill="url(#paint2_linear_372_60)"/>
<path d="M103.154 72.7964C102.496 72.0035 101.784 71.2566 101.023 70.5609C99.7384 75.0615 97.6727 79.3013 94.9204 83.087C90.9403 88.519 85.7301 92.9311 79.7165 95.9619C73.7029 98.9926 67.0569 100.556 60.3228 100.524C36.9771 100.524 18.0501 82.2226 18.0501 59.6518C18.0501 38.3255 34.9577 20.8143 56.5151 18.9588C57.7744 18.8471 59.0412 18.7875 60.3228 18.7875C63.0723 18.7796 65.8166 19.029 68.5196 19.5326V12.8262C65.72 12.3314 62.8826 12.0821 60.0397 12.0811C58.8623 12.0811 57.6999 12.1407 56.5375 12.2226C31.5375 14.0185 11.8877 34.4655 11.8877 59.4506C11.8877 85.5907 33.4376 106.783 60.0173 106.783C68.4382 106.817 76.7211 104.645 84.042 100.484C91.363 96.3227 97.4667 90.3171 101.746 83.0646C103.417 80.1588 104.768 77.0808 105.777 73.8843C105.286 73.915 104.794 73.833 104.34 73.6444C103.885 73.4558 103.48 73.1658 103.154 72.7964Z" fill="#27C637"/>
<path d="M95.0627 98.8693C87.5808 105.397 78.4363 109.722 68.6445 111.367C58.8527 113.011 48.7968 111.909 39.5933 108.184C12.0896 97.1704 -1.42754 66.2986 9.40703 39.2643C19.8392 13.2881 48.9003 0.285162 75.5471 9.05565L77.954 3.04224C67.9579 -0.291776 57.2533 -0.898133 46.9447 1.28574C36.6361 3.46961 27.097 8.3646 19.3116 15.4656C11.5262 22.5666 5.77665 31.6164 2.65616 41.6811C-0.464337 51.7459 -0.842708 62.461 1.56009 72.7207C3.96288 82.9805 9.05981 92.4133 16.3249 100.046C23.59 107.678 32.7601 113.234 42.889 116.139C53.0179 119.045 63.7386 119.195 73.9449 116.575C84.1512 113.954 93.4734 108.657 100.949 101.231L95.0627 98.8693Z" fill="#38A8E8"/>
<path d="M48.2671 87.3344C32.82 81.1496 25.1673 64.0334 31.1285 49.1005C33.0823 44.3084 36.2845 40.1275 40.4021 36.9928C44.5197 33.8581 49.4021 31.8841 54.5413 31.2763L56.8737 25.4641C43.3938 25.9932 30.9869 33.9812 25.7932 46.9544C18.6695 64.7413 27.8051 85.1213 46.203 92.4909C50.9914 94.435 56.14 95.333 61.3037 95.1248C66.4675 94.9166 71.5271 93.607 76.1434 91.2838L68.5875 88.2584C61.9073 90.2806 54.7362 89.9545 48.2671 87.3344Z" fill="#38A8E8"/>
<path d="M61.366 58.1019C61.366 64.6294 62.9234 69.078 69.518 69.078C73.2438 69.078 75.7475 67.1481 77.603 63.8098C79.5255 64.1078 80.6358 66.3359 80.6358 68.2807C80.6358 76.2911 73.445 79.7785 65.442 79.7785C51.8727 79.7785 43.3481 72.5877 43.3481 59.0184C43.3481 45.7472 52.4689 38.8545 65.7401 38.8545C73.594 38.8545 81.679 41.5967 81.679 48.8619C81.679 54.3463 76.4107 56.5669 71.992 56.5669C70.4192 56.606 68.868 56.1949 67.521 55.3821C67.5955 53.6757 67.67 51.9022 67.67 50.3448C67.67 46.4104 67.2304 43.3701 65.0769 43.3701C61.7311 43.3403 61.366 52.8336 61.366 58.1019Z" fill="url(#paint3_linear_372_60)"/>
<defs>
<linearGradient id="paint0_linear_372_60" x1="102.902" y1="38.6084" x2="102.902" y2="79.7485" gradientUnits="userSpaceOnUse">
<stop offset="0.244792" stop-color="#38A8E8"/>
<stop offset="0.895833" stop-color="#27C637"/>
</linearGradient>
<linearGradient id="paint1_linear_372_60" x1="147.839" y1="24.1526" x2="147.839" y2="79.7487" gradientUnits="userSpaceOnUse">
<stop offset="0.244792" stop-color="#38A8E8"/>
<stop offset="0.895833" stop-color="#27C637"/>
</linearGradient>
<linearGradient id="paint2_linear_372_60" x1="194.269" y1="38.6013" x2="194.269" y2="79.7488" gradientUnits="userSpaceOnUse">
<stop offset="0.244792" stop-color="#38A8E8"/>
<stop offset="0.895833" stop-color="#27C637"/>
</linearGradient>
<linearGradient id="paint3_linear_372_60" x1="62.5136" y1="38.8545" x2="62.5136" y2="79.7785" gradientUnits="userSpaceOnUse">
<stop offset="0.244792" stop-color="#38A8E8"/>
<stop offset="0.895833" stop-color="#27C637"/>
</linearGradient>
</defs>
</svg>
