<svg width="111" height="99" viewBox="0 0 111 99" fill="none" xmlns="http://www.w3.org/2000/svg">
<path d="M102.507 60.1296C104.613 62.7966 106.571 65.1841 108.418 67.6953C109.033 68.4902 109.398 69.476 109.46 70.51C109.357 77.8841 109.124 85.2542 108.924 92.6282C108.887 94.0216 108.802 95.4229 108.766 96.8083C108.729 98.2616 108.126 99.0281 106.719 98.9962C105.119 98.9603 103.516 98.9962 101.916 98.9962C98.5913 98.9962 98.5913 98.9962 98.015 95.5227H49.05C49.002 96.0737 48.9466 96.5847 48.9207 97.0918C48.8505 98.3933 48.2114 99.0042 47.0145 99.0002C44.7978 99.0002 42.5812 98.9762 40.3646 99.0002C39.2563 99.0002 38.5396 98.5051 38.5174 97.2914C38.2367 88.2645 37.9596 79.2335 37.7786 70.2026C37.8365 69.2872 38.1685 68.4169 38.7243 67.7233C40.5715 65.232 42.5665 62.8445 44.6796 60.1935C42.3891 59.7943 40.4681 59.5268 38.5839 59.0796C36.94 58.6804 36.504 57.6264 37.5606 56.245C38.3738 55.2729 39.3858 54.5196 40.5161 54.0451C41.4796 53.5851 42.5439 53.4287 43.5861 53.594C46.3901 54.2008 47.672 52.7955 48.8247 50.2164C49.9572 47.7843 51.4217 45.5501 53.1692 43.5889C54.2092 42.4984 55.5823 41.8565 57.0298 41.7843C68.172 41.6406 79.3154 41.6406 90.46 41.7843C91.7124 41.7843 93.3527 42.5828 94.1137 43.6168C96.1678 46.4116 97.9078 49.4778 99.6553 52.528C100.154 53.4024 100.56 53.6818 101.502 53.6459C103.097 53.5737 104.694 53.6699 106.272 53.9333C107.241 54.0932 108.148 54.5473 108.887 55.2429C109.573 55.9571 110.004 56.9101 110.103 57.9338C110.121 58.333 108.887 59.0637 108.141 59.2473C106.405 59.6226 104.698 59.7903 102.507 60.1296ZM48.4257 58.2532H98.776C97.6197 55.4265 96.6074 52.8873 95.5471 50.3761C92.6692 43.529 94.2652 44.3395 87.3641 44.2117C77.0902 44.0201 66.8051 44.2716 56.5274 44.3075C54.7763 44.3075 53.668 45.0422 53.0252 46.8747C52.2198 49.1704 51.2001 51.3822 50.284 53.6339C49.7002 55.0672 49.1424 56.5085 48.4257 58.2532ZM91.1619 78.463C90.1349 78.4031 89.4145 78.3272 88.6904 78.3272C79.159 78.3272 69.6288 78.3272 60.0998 78.3272C55.3157 78.3272 55.9843 77.7483 56.8082 82.8148C56.9892 83.9287 57.4399 84.3479 58.5187 84.3439C68.6005 84.3079 78.6861 84.3439 88.7717 84.296C89.2372 84.296 90.0278 83.9965 90.1164 83.6612C90.5561 82.0322 90.8036 80.3474 91.1619 78.463ZM104.68 76.3111C104.693 75.3228 104.433 74.3526 103.935 73.5241C103.436 72.6957 102.72 72.0464 101.879 71.659C101.037 71.2716 100.108 71.1636 99.2099 71.3488C98.3116 71.534 97.4845 72.004 96.8341 72.6989C96.1838 73.3939 95.7395 74.2823 95.558 75.251C95.3765 76.2197 95.4658 77.2249 95.8148 78.1386C96.1637 79.0522 96.7563 79.8329 97.5173 80.3813C98.2782 80.9297 99.1729 81.2208 100.087 81.2178C101.296 81.2179 102.457 80.7027 103.316 79.7841C104.176 78.8655 104.666 77.6175 104.68 76.3111ZM47.0883 81.2338C48.3053 81.2269 49.4698 80.6978 50.3258 79.7631C51.1818 78.8283 51.6591 77.5643 51.6527 76.2492C51.6463 74.9341 51.1568 73.6756 50.2918 72.7505C49.4268 71.8254 48.2572 71.3096 47.0403 71.3165C46.4378 71.3199 45.8417 71.4515 45.2862 71.7039C44.7308 71.9562 44.2267 72.3243 43.8029 72.7872C42.9469 73.722 42.4696 74.986 42.4759 76.3011C42.4823 77.6162 42.9718 78.8747 43.8368 79.7998C44.7018 80.7248 45.8714 81.2406 47.0883 81.2338Z" fill="white"/>
<path d="M27.9404 98.8683H4.1746C4.14135 98.1138 4.08594 97.467 4.08594 96.8202C4.08594 82.7881 4.08594 68.7573 4.08594 54.7278C4.08594 47.9885 7.48104 42.9979 12.9524 41.4369C20.3706 39.3209 27.9293 44.9742 28.0549 53.2546C28.2802 68.2822 28.114 83.3137 28.1066 98.3413C28.0707 98.5235 28.0149 98.7004 27.9404 98.8683ZM20.1379 54.5521C20.1534 53.4115 19.7576 52.3091 19.0343 51.4782C18.311 50.6474 17.317 50.1533 16.2625 50.1005C15.7274 50.0827 15.1943 50.179 14.6936 50.3838C14.1929 50.5886 13.7344 50.898 13.3444 51.2943C12.9543 51.6907 12.6403 52.1661 12.4203 52.6936C12.2003 53.221 12.0785 53.7902 12.062 54.3685C12.0455 54.9468 12.1346 55.5229 12.3242 56.064C12.5137 56.6051 12.8 57.1006 13.1667 57.5221C13.5334 57.9436 13.9734 58.2829 14.4615 58.5207C14.9495 58.7585 15.4762 58.8901 16.0113 58.9079C16.5481 58.9169 17.0811 58.8108 17.5798 58.5959C18.0784 58.381 18.5326 58.0614 18.9163 57.6556C19.3 57.2499 19.6055 56.766 19.8152 56.232C20.0249 55.6979 20.1345 55.1243 20.1379 54.5441V54.5521Z" fill="white"/>
<path d="M63.0372 25.0321C61.7626 21.8661 60.5176 18.8398 59.3428 15.7816C59.3064 15.5466 59.3237 15.3055 59.3932 15.0793C59.4628 14.8531 59.5824 14.6488 59.7418 14.4841C61.7035 12.8871 63.7206 11.4099 65.8892 9.76099C67.1822 12.9549 68.4272 15.9812 69.5836 19.0355C69.6147 19.2666 69.5929 19.5025 69.5201 19.7224C69.4473 19.9423 69.3258 20.1397 69.1661 20.2971C67.2155 21.8821 65.1947 23.3872 63.0372 25.0321Z" fill="white"/>
<path d="M42.3399 27.8186L46.363 37.8437L39.4841 43.1337C38.1837 39.9157 36.9424 36.9054 35.7898 33.8592C35.7547 33.6257 35.7731 33.3864 35.8433 33.1623C35.9135 32.9382 36.0333 32.7361 36.1925 32.5736C38.1468 30.9886 40.1602 29.4874 42.3399 27.8186Z" fill="white"/>
<path d="M74.8322 15.9889C73.5465 12.7949 72.3274 9.8565 71.1821 6.86615C71.1193 6.63961 71.109 6.39984 71.1522 6.16798C71.1953 5.93613 71.2906 5.71931 71.4297 5.53667C73.4246 3.91972 75.4935 2.3946 77.6805 0.717773C78.9624 3.91174 80.1927 6.8422 81.301 9.83654C81.4524 10.2358 81.1384 11.1341 80.7764 11.4335C78.9255 12.9546 76.9897 14.356 74.8322 15.9889Z" fill="white"/>
<path d="M54.121 18.7717C55.4103 21.9896 56.6368 24.952 57.7451 27.9544C57.8892 28.3536 57.5678 29.192 57.2168 29.4795C55.3697 31.0046 53.4301 32.4219 51.3059 34.0548C50.0055 30.8609 48.7198 27.8186 47.5561 24.7245C47.4342 24.4051 47.8443 23.6385 48.1952 23.3551C50.0461 21.8499 51.9746 20.4166 54.121 18.7717Z" fill="white"/>
<path d="M34.6041 46.8985L28.996 51.1705C28.2276 49.4417 27.6661 47.7529 26.7794 46.2957C25.8928 44.8384 24.7217 43.6966 23.5469 42.2593L30.5661 36.8416C31.933 40.2711 33.2187 43.469 34.6041 46.8985Z" fill="white"/>
<path d="M2.98822 66.4857L1.51048 64.226C-0.731988 60.7925 -0.665491 60.4891 2.98822 58.1455V66.4857Z" fill="white"/>
<path d="M16.0664 56.3727C16.9784 56.3727 17.7178 55.5737 17.7178 54.5881C17.7178 53.6025 16.9784 52.8035 16.0664 52.8035C15.1544 52.8035 14.415 53.6025 14.415 54.5881C14.415 55.5737 15.1544 56.3727 16.0664 56.3727Z" fill="white"/>
</svg>
