<svg width="172" height="84" viewBox="0 0 172 84" fill="none" xmlns="http://www.w3.org/2000/svg">
<path d="M16.0917 58.4838C13.1475 58.4838 10.0631 58.4838 7.11894 58.4838C5.57675 58.4838 4.17477 58.0632 3.47377 56.6612C2.77278 55.119 3.19337 53.8572 4.17477 52.5955C7.39934 48.8101 10.4837 45.1649 13.7083 41.2394C20.7182 32.6872 27.7282 24.1351 34.7381 15.583C38.5235 11.0966 42.3089 6.61024 45.954 1.98368C47.0756 0.441488 48.4776 -0.119307 50.3002 0.0208917C64.3201 1.42288 76.237 6.75044 85.3499 17.8261C85.4901 17.9663 85.6303 18.1065 86.1911 18.5271C86.3313 18.2467 86.3313 17.8261 86.4715 17.6859C95.7246 6.75044 107.782 1.42288 121.802 0.0208917C123.484 -0.119307 124.746 0.441488 125.867 1.84348C135.12 13.0594 144.374 24.2753 153.627 35.4912C158.393 41.2393 163.16 46.9875 167.927 52.7357C168.768 53.8572 169.189 54.9788 168.488 56.3808C167.927 57.7828 166.805 58.3436 165.263 58.3436C162.039 58.3436 158.954 58.3436 155.309 58.3436C156.15 59.4652 156.711 60.3064 157.272 61.0074C161.758 66.7555 166.385 72.3635 170.871 78.1116C171.853 79.3734 172.273 80.6352 171.572 82.1774C170.871 83.5794 169.609 84 168.067 84C167.086 84 166.104 84 165.263 84C143.112 84 120.96 84 98.9492 84C67.825 84 36.8411 84 5.71695 84C5.01596 84 4.31496 84 3.75417 84C2.21198 84 1.09039 83.5794 0.389397 82.1774C-0.311597 80.7754 -0.0311997 79.5136 0.950192 78.2518C4.03457 74.3263 7.11894 70.4007 10.2033 66.6153C12.3063 64.0918 14.2691 61.428 16.3721 58.9044C16.0917 58.7642 16.0917 58.624 16.0917 58.4838ZM158.113 51.7543C157.833 51.3337 157.692 50.9131 157.412 50.6327C153.346 45.5855 149.14 40.6786 145.075 35.6314C138.065 27.0793 130.915 18.6673 124.045 10.1152C122.082 7.59163 120.259 6.75044 117.035 7.45143C106.099 9.69461 96.8462 14.6016 90.2569 23.8547C89.6961 24.6959 89.2755 25.8175 89.2755 26.7989C89.2755 41.0992 89.2755 55.3994 89.2755 69.5595C89.2755 69.9801 89.2755 70.5409 89.4157 71.2419C89.8363 70.8213 90.2568 70.6811 90.5372 70.4007C94.3226 68.0173 97.8276 65.2133 101.753 63.2506C115.352 56.521 130.073 53.9974 144.934 52.5955C149.281 52.1749 153.627 52.0347 158.113 51.7543ZM82.5459 71.2419C82.5459 70.2605 82.5459 69.6997 82.5459 68.9987C82.5459 55.2592 82.5459 41.5197 82.5459 27.6401C82.5459 25.8175 82.1253 24.4155 81.0037 23.0135C73.7134 13.48 63.7593 8.57302 51.9826 7.03083C50.861 6.75044 50.3002 7.03083 49.5992 7.87203C45.8138 12.4986 42.0285 17.1251 38.2431 21.7517C32.0743 29.1822 25.9056 36.6128 19.7368 44.0433C17.7741 46.4267 15.8113 48.9503 13.7083 51.6141C14.1289 51.6141 14.4093 51.7543 14.6897 51.7543C20.2976 52.1749 25.7654 52.4553 31.3733 53.016C49.5992 55.119 67.4044 58.9044 82.5459 71.2419ZM79.0409 77.4106C78.1998 76.5695 77.7792 76.0087 77.2184 75.5881C73.8536 73.3449 70.7692 70.8213 67.2642 69.1389C54.2257 62.6898 40.0657 60.4466 25.7654 59.1848C25.2046 59.1848 24.3634 59.6054 23.9428 60.1662C19.7368 65.3536 15.5309 70.6811 11.3249 75.8685C11.0445 76.2891 10.7641 76.7097 10.4837 77.2704C33.1959 77.4106 55.9081 77.4106 79.0409 77.4106ZM161.618 77.4106C161.057 76.7097 160.777 76.2891 160.356 75.7283C156.291 70.6811 152.225 65.6339 148.299 60.4466C147.458 59.4652 146.757 59.0446 145.495 59.1848C135.401 60.1662 125.447 61.7084 115.773 64.6526C108.202 67.0359 100.912 70.1203 94.7432 75.4479C94.1824 76.0087 93.4814 76.4293 92.7804 76.8499C92.9206 76.9901 93.0608 77.1302 93.201 77.2704C115.913 77.4106 138.625 77.4106 161.618 77.4106Z" fill="white"/>
<path d="M120.821 16.1438C122.503 16.1438 123.905 17.4056 124.185 19.088C124.466 20.9106 123.204 22.1723 121.241 22.8733C118.017 23.8547 114.652 24.8361 111.568 26.0979C106.661 28.0607 102.455 31.0049 98.6693 34.7902C97.5477 35.9118 96.1457 36.1922 94.7437 35.4912C93.3417 34.7902 92.7809 33.5285 93.0613 31.9863C93.2015 31.2853 93.6221 30.5843 94.0427 30.1637C101.333 22.8733 110.306 18.5272 120.4 16.284C120.54 16.1438 120.68 16.1438 120.821 16.1438Z" fill="white"/>
<path d="M127.969 32.2666C129.932 32.2666 131.334 33.5284 131.474 35.2108C131.614 36.753 130.212 38.4354 128.53 38.8559C121.24 40.3981 114.65 43.4825 108.902 48.1091C107.921 48.9503 106.939 49.7915 106.098 50.6326C104.556 52.0346 102.453 52.1748 101.191 50.7729C99.9295 49.3709 99.9295 47.4081 101.472 46.0061C106.238 41.2393 111.846 37.454 118.296 35.2108C121.1 34.2294 124.044 33.3882 126.848 32.547C127.268 32.4068 127.689 32.2666 127.969 32.2666Z" fill="white"/>
<path d="M51.4218 16.1438C52.5433 16.4242 53.9453 16.7046 55.3473 17.1252C63.6191 19.5086 71.0496 23.4341 77.2183 29.4627C77.9193 30.1637 78.4801 31.1451 78.7605 32.1265C79.0409 33.5285 78.1997 34.7902 76.9379 35.351C75.536 36.052 74.134 35.7716 73.1526 34.65C69.0868 30.5843 64.32 27.4999 58.8523 25.3969C56.0483 24.2753 53.2443 23.5743 50.4404 22.7331C48.4776 22.1724 47.356 20.7704 47.6364 18.9478C47.9168 17.2654 49.3188 16.1438 51.4218 16.1438Z" fill="white"/>
<path d="M43.1502 31.9863C45.814 32.6873 48.1973 33.2481 50.4405 33.9491C57.8711 36.4727 64.6006 40.2581 70.2086 45.866C71.8909 47.5484 72.0311 49.5112 70.6291 50.9132C69.2272 52.3152 67.1242 52.3152 65.4418 50.6328C59.5534 44.8846 52.5435 41.3797 44.6924 39.2767C43.4306 38.9963 42.0286 38.2953 41.0472 37.4541C40.0658 36.6129 39.9256 35.2109 40.6266 34.2295C41.3276 33.2481 42.4492 32.6873 43.1502 31.9863Z" fill="white"/>
</svg>
