<svg width="115" height="112" viewBox="0 0 115 112" fill="none" xmlns="http://www.w3.org/2000/svg">
<path d="M112.02 111.532H2.29179C1.68397 111.532 1.10104 111.291 0.67125 110.862C0.241456 110.433 0 109.851 0 109.244C0 108.637 0.241456 108.055 0.67125 107.626C1.10104 107.196 1.68397 106.955 2.29179 106.955H112.02C112.628 106.955 113.211 107.196 113.641 107.626C114.07 108.055 114.312 108.637 114.312 109.244C114.312 109.851 114.07 110.433 113.641 110.862C113.211 111.291 112.628 111.532 112.02 111.532Z" fill="white"/>
<path d="M55.0791 78.6221V109.244C55.0791 109.851 55.3206 110.433 55.7503 110.862C56.1801 111.291 56.7631 111.532 57.3709 111.532C57.9787 111.532 58.5616 111.291 58.9914 110.862C59.4212 110.433 59.6627 109.851 59.6627 109.244V78.5967C58.9019 78.6859 58.1369 78.7343 57.3709 78.7416C56.6053 78.7446 55.8402 78.7047 55.0791 78.6221Z" fill="white"/>
<path d="M57.4196 8.14166C62.0541 12.8049 69.7011 21.4857 72.4232 30.3495C76.2276 42.7323 75.9169 53.5133 71.4988 62.3873C69.5585 66.2878 67.4602 69.9467 63.1745 71.8537C61.312 72.6019 59.3253 72.9943 57.3178 73.0106H57.1675C55.2443 73.0233 53.3402 72.629 51.5806 71.8537C47.295 69.9467 45.1967 66.2878 43.2563 62.3873C38.8383 53.5133 38.5276 42.7323 42.332 30.3495C45.0541 21.4831 52.7545 12.8049 57.4145 8.14166H57.4196ZM57.4196 0.282227C57.4196 0.282227 41.3949 13.8729 36.847 28.6713C35.4872 33.1057 30.4452 49.5213 38.1202 64.9325C40.0096 68.7313 42.8489 74.2311 49.2405 77.0789C51.7341 78.1808 54.433 78.7432 57.1599 78.7291H57.3661C60.1615 78.7061 62.926 78.1431 65.5071 77.0713C71.8986 74.2235 74.7379 68.7236 76.6274 64.9249C84.3023 49.5086 79.2604 33.0981 77.9006 28.6637C73.3526 13.8729 57.4323 0.282227 57.4323 0.282227H57.4196Z" fill="white"/>
<path d="M11.8129 54.3142C12.6303 55.8551 15.658 61.5507 21.7975 63.6128C23.3254 64.1214 25.5306 64.8282 27.9853 63.8874C28.9651 63.5093 29.8512 62.9238 30.5827 62.1711C31.3174 61.4245 31.9017 60.5441 32.3041 59.5776C33.2437 57.1239 32.5358 54.9092 32.0265 53.3989C29.9639 47.2685 24.2573 44.2452 22.7168 43.429C17.5704 40.7032 9.72995 41.316 9.72995 41.316C9.72995 41.316 9.08315 49.178 11.8129 54.3142Z" fill="white"/>
<path d="M102.945 54.3142C102.127 55.8551 99.0996 61.5507 92.9576 63.6128C91.445 64.1214 89.2271 64.8282 86.7723 63.8874C85.7922 63.51 84.906 62.9244 84.175 62.1711C83.4403 61.4245 82.8559 60.5441 82.4536 59.5776C81.5139 57.1239 82.2219 54.9092 82.7311 53.3989C84.7938 47.2685 90.5003 44.2452 92.0409 43.429C97.1873 40.7032 105.028 41.316 105.028 41.316C105.028 41.316 105.677 49.178 102.945 54.3142Z" fill="white"/>
<path d="M24.7441 77.1451C28.714 77.3993 32.1287 78.2003 34.4052 79.4004C39.7527 82.2355 43.1879 85.8131 44.6088 90.039C45.2123 91.8316 45.6274 93.3165 45.0799 94.7455C44.8014 95.3631 44.4161 95.9269 43.9416 96.411C43.5007 96.8728 42.9634 97.2321 42.3679 97.4636C41.9057 97.637 41.4153 97.7232 40.9216 97.7179C39.8037 97.7179 38.6018 97.3161 37.6367 96.9907C33.407 95.5719 29.8217 92.1443 26.9849 86.8022C25.5487 84.1018 24.9478 80.3234 24.7441 77.14V77.1451ZM21.7342 71.3274C20.0714 71.3274 19.0197 71.4113 19.0197 71.4113C19.0197 71.4113 18.1284 82.3448 21.9252 89.4898C23.0634 91.6307 27.2727 99.5537 35.8134 102.419C37.1681 102.874 38.9277 103.436 40.9216 103.436C42.1164 103.441 43.3018 103.225 44.4178 102.798C45.7804 102.27 47.0129 101.455 48.0312 100.408C49.0519 99.3725 49.863 98.15 50.4198 96.8076C51.7286 93.3979 50.7431 90.3161 50.0352 88.2159C47.1654 79.6877 39.2307 75.4847 37.0866 74.3481C32.1491 71.7342 25.4291 71.3274 21.7316 71.3274H21.7342Z" fill="white"/>
<path d="M89.9376 77.1451C89.7288 80.3259 89.1329 84.1222 87.7043 86.8072C84.8651 92.1469 81.2822 95.577 77.0501 96.9958C76.085 97.3212 74.8856 97.723 73.7652 97.723C73.2722 97.7285 72.7826 97.6423 72.3213 97.4687C71.7265 97.2372 71.1894 96.8788 70.7476 96.4186C70.2773 95.9371 69.8939 95.3779 69.6145 94.7658C69.0594 93.3216 69.477 91.8367 70.0805 90.0441C71.5014 85.8181 74.934 82.2406 80.284 79.4055C82.5504 78.2053 85.9728 77.4146 89.9376 77.1501V77.1451ZM92.9449 71.3274C89.2475 71.3274 82.5249 71.7342 77.5899 74.3481C75.4433 75.4847 67.5086 79.6877 64.6388 88.2159C63.9334 90.3161 62.9454 93.3979 64.2542 96.8076C64.8112 98.1534 65.6241 99.3787 66.6479 100.416C67.6662 101.463 68.8987 102.278 70.2613 102.806C71.3764 103.232 72.561 103.448 73.755 103.444C75.7488 103.444 77.511 102.874 78.8657 102.427C87.4064 99.5613 91.6157 91.6383 92.7539 89.4974C96.5506 82.3525 95.6568 71.4189 95.6568 71.4189C95.6568 71.4189 94.6077 71.335 92.9449 71.335V71.3274Z" fill="white"/>
</svg>
