<svg width="103" height="121" viewBox="0 0 103 121" fill="none" xmlns="http://www.w3.org/2000/svg">
<path d="M21.3367 79.3212C41.6842 79.088 62.0318 79.2337 82.3794 79.2337C85.3237 79.2337 87.8016 78.0968 89.8713 76.1437C92.2326 73.9282 93.2529 71.1588 93.4569 67.8356C93.865 61.3931 87.9765 55.6503 81.4466 55.8544C71.506 56.1751 61.5363 55.9419 51.5957 55.9419C41.2178 55.9419 30.8108 55.971 20.433 55.9419C17.547 55.9419 15.1274 57.0788 13.0868 58.9736C10.6964 61.2182 9.647 64.0168 9.44294 67.3983C9.00567 73.7824 14.8651 79.3795 21.3367 79.3212ZM77.1031 65.212C79.406 65.2703 79.3768 65.2411 79.4352 67.7773C79.4643 69.3806 79.3769 70.1094 77.0156 69.9345C75.0625 70.0511 74.6543 69.7596 74.6835 67.5149C74.6835 65.5909 74.8876 65.1537 77.1031 65.212Z" fill="white"/>
<path d="M20.1124 23.2633C30.5486 23.2633 40.9847 23.2633 51.4209 23.2633C61.7696 23.2633 72.1183 23.2341 82.4378 23.2633C85.2947 23.2633 87.6559 22.1555 89.6674 20.319C92.4659 17.7828 93.457 14.547 93.3696 10.7574C93.2238 5.18946 88.1223 0.000534051 82.5836 0.000534051C61.857 0.000534051 41.1013 0.000534051 20.3748 0.000534051C17.4596 -0.0286172 15.0109 1.13743 12.9412 3.06142C10.2301 5.62673 9.29729 8.83337 9.41389 12.5356C9.5888 18.0452 14.632 23.2633 20.1124 23.2633ZM77.074 9.27064C79.1437 9.15404 79.4936 9.50385 79.4353 11.6319C79.377 13.964 79.4061 13.964 76.8991 13.964C74.7127 13.964 74.6836 13.9348 74.7127 11.457C74.7127 9.29979 74.771 9.27064 77.074 9.27064Z" fill="white"/>
<path d="M21.3946 51.3359C31.3352 51.0152 41.3049 51.2484 51.2455 51.2484C61.6234 51.2484 72.0304 51.2193 82.4082 51.2484C85.2942 51.2484 87.7429 50.1115 89.7544 48.2167C92.1448 45.972 93.1942 43.1735 93.3983 39.792C93.7772 33.4078 87.9178 27.8108 81.4754 27.8691C61.157 28.1315 40.8094 27.9857 20.4618 27.9566C17.5175 27.9566 15.0396 29.0935 12.9699 31.0466C10.6086 33.2621 9.58835 36.0315 9.38429 39.3547C8.97618 45.7971 14.8647 51.5399 21.3946 51.3359ZM77.0736 37.2558C79.1724 37.1101 79.4931 37.5182 79.4348 39.6171C79.3765 41.9783 79.4057 41.9783 76.8986 41.9783C74.7123 41.9783 74.6832 41.9492 74.6832 39.4713C74.7123 37.3141 74.7706 37.2558 77.0736 37.2558Z" fill="white"/>
<path d="M4.54602 102.555C2.79694 102.526 0.814653 103.75 0.231627 105.732C-0.468003 108.006 0.464838 110.338 2.38882 111.358C2.82609 111.592 3.35081 111.883 3.84639 111.883C13.408 111.912 22.9696 111.912 32.7062 111.912C32.7062 108.764 32.7062 105.761 32.7062 102.642C32.1523 102.642 31.6859 102.642 31.2194 102.642C22.3283 102.584 13.4372 102.642 4.54602 102.555Z" fill="white"/>
<path d="M98.4711 102.584C89.5216 102.584 80.6013 102.584 71.6519 102.584C71.1855 102.584 70.7191 102.613 70.1943 102.642C70.1943 105.703 70.1943 108.647 70.1943 111.854C70.7191 111.854 71.1563 111.854 71.5644 111.854C80.543 111.854 89.5508 111.854 98.5294 111.854C101.124 111.854 102.727 110.018 102.727 107.102C102.727 104.391 101.036 102.584 98.4711 102.584Z" fill="white"/>
<path d="M56.0272 95.3546V84.0439H46.7862V95.3546C42.0054 97.2203 38.5947 101.855 38.5947 107.307C38.5947 114.39 44.3375 120.104 51.3921 120.104C58.4759 120.104 64.1896 114.361 64.1896 107.307C64.2187 101.855 60.808 97.2203 56.0272 95.3546ZM50.2552 114.216L43.9877 109.027L46.2324 106.869L49.5556 109.639L55.998 100.398L58.7966 101.943L50.2552 114.216Z" fill="white"/>
</svg>
