<svg width="103" height="103" viewBox="0 0 103 103" fill="none" xmlns="http://www.w3.org/2000/svg">
<path d="M99.9938 58.9185L97.5309 58.5203L96.9038 58.42L96.8082 59.047C93.4548 80.7586 74.0777 97.2354 51.714 97.3734H51.4302C30.9321 97.3734 12.7073 83.6056 7.11517 63.8929C1.52307 44.1803 9.82891 22.9297 27.3091 12.1891C34.7025 7.64271 42.6729 5.34285 51.0116 5.34285C52.8216 5.34445 54.6301 5.44914 56.4282 5.6564C69.7539 7.18337 80.7374 13.6659 89.0856 24.9238L89.4508 25.4176L89.951 25.0633L92.0784 23.5615L93.2291 22.7478L93.7354 22.3904L93.3827 21.8793C88.6999 15.1318 82.4448 9.62576 75.1578 5.83668C67.8198 2.01385 59.6699 0.0120039 51.3957 2.08286e-05V0.313567V2.08286e-05C44.6524 -0.00605255 37.974 1.31613 31.7416 3.89107C25.5093 6.46601 19.8452 10.2433 15.0726 15.0072C5.43407 24.6284 0.0122866 37.6845 2.08567e-05 51.3032C-0.0122449 64.922 5.38601 77.9878 15.0072 87.6263C24.6284 97.2649 37.6845 102.687 51.3032 102.699C54.4509 102.697 57.5921 102.413 60.6892 101.851C71.9242 99.8556 82.1538 94.1182 89.7142 85.5715C93.073 81.802 95.8647 77.5633 98.0012 72.9889C100.039 68.6306 101.355 64.2096 101.921 59.8466L102.001 59.2414L101.399 59.1442L99.9938 58.9185Z" fill="white"/>
<path d="M79.22 31.8893L79.5837 32.3831L80.0854 32.0288L83.028 29.9562L83.5344 29.6004L83.1832 29.0893C79.658 23.9931 74.9486 19.8287 69.4593 16.9535C63.891 14.0295 57.6978 12.4965 51.4085 12.4854V12.799V12.4854C46.2839 12.4474 41.2024 13.4231 36.4563 15.3564C31.7103 17.2897 27.3934 20.1425 23.7541 23.7506C20.1148 27.3587 17.2249 31.6508 15.2507 36.38C13.2766 41.1092 12.2571 46.1822 12.251 51.3069C12.2449 56.4316 13.2523 61.5069 15.2152 66.2408C17.1781 70.9747 20.0577 75.2737 23.6884 78.8905C27.3192 82.5072 31.6292 85.3703 36.3707 87.3149C41.1121 89.2595 46.1913 90.2473 51.316 90.2214C52.7656 90.2215 54.2142 90.1435 55.6554 89.9878C64.5225 89.0559 72.7881 85.0648 79.0319 78.7001C81.8929 75.8011 84.2852 72.4742 86.1227 68.8391C87.884 65.391 89.0722 61.6792 89.6407 57.8493L89.7301 57.2395L89.1218 57.1407L86.9991 56.7942L85.6164 56.5653L84.9893 56.4634L84.8936 57.0905C82.4417 73.1817 68.0217 85.3097 51.3536 85.3097C51.0965 85.3097 50.8347 85.3097 50.5776 85.3097C35.4882 84.9711 22.302 74.4939 18.5175 59.8403C14.7126 45.0927 21.308 29.4953 34.5554 21.9091C39.7618 18.9304 45.3366 17.4175 51.1263 17.4175C52.6626 17.4224 54.197 17.5271 55.7197 17.7311C65.3142 18.9868 73.2203 23.7527 79.22 31.8893Z" fill="white"/>
<path d="M101.451 56.399L101.394 56.3426C100.194 55.1407 98.996 53.9387 97.7993 52.7368C94.3268 49.2486 90.7351 45.6413 87.1905 42.106C86.9334 41.852 86.924 41.7925 87.0713 41.4586C88.1515 38.9894 89.2207 36.4669 90.2538 34.0291C90.5674 33.2975 90.8809 32.5606 91.1945 31.8186C91.8686 30.2352 92.5406 28.6523 93.2106 27.0699L94.1089 24.9268L94.2923 24.4926L93.927 24.1947L93.9098 24.1822L93.8032 24.0944L93.4348 23.7949L93.046 24.0693L56.7044 49.7424L55.4502 50.6251L56.9615 50.8728L101.378 58.1627L102.408 58.332L102.078 57.3381C101.95 56.9776 101.735 56.6547 101.451 56.399Z" fill="white"/>
<path d="M68.4073 39.5353L68.7726 40.026L69.2711 39.6732L70.784 38.604L71.5475 38.0647L72.0445 37.712L71.7074 37.2041C67.3178 30.6196 59.5371 26.5435 51.3865 26.5435V26.857V26.5435C46.8949 26.5363 42.4857 27.7487 38.6292 30.0513C34.7728 32.3538 31.6138 35.6602 29.4894 39.6176C27.365 43.575 26.3548 48.0349 26.5667 52.5214C26.7786 57.008 28.2045 61.3529 30.6924 65.0924C32.9575 68.493 36.0221 71.286 39.6178 73.2267C43.2134 75.1673 47.2301 76.1962 51.3159 76.2233C52.3117 76.2228 53.3064 76.161 54.2946 76.0383C61.8197 75.0977 66.744 71.3148 69.5439 68.3C72.9349 64.6472 75.205 60.0067 75.7725 55.5685L75.8494 54.9649L75.2489 54.8693L72.5258 54.4366L71.9222 54.3394L71.8203 54.9335C69.9986 64.7381 61.6222 71.9293 51.9101 72.0312H51.6593C42.2717 72.0312 34.19 66.0926 31.5515 57.2553C30.2843 52.9597 30.4422 48.3692 32.0017 44.1708C33.5611 39.9725 36.4381 36.3919 40.2023 33.9651C43.6199 31.7781 47.326 30.6729 51.214 30.6729C51.7032 30.6729 52.2001 30.6917 52.6955 30.7262C59.1013 31.1699 64.3877 34.136 68.4073 39.5353Z" fill="white"/>
<path d="M58.8833 47.0054L58.5697 46.5037C57.0851 44.1286 54.3212 42.6534 51.3582 42.6534V42.9669V42.6534C50.2582 42.65 49.168 42.8592 48.1475 43.2695C46.2527 44.0388 44.6851 45.444 43.7139 47.2437C42.7446 49.0359 42.4371 51.1123 42.8454 53.1086C43.2562 55.0864 44.3364 56.8622 45.904 58.1363C47.48 59.4013 49.4408 60.0899 51.4617 60.0881C51.5547 60.0881 51.6472 60.0881 51.7391 60.0881C55.7447 59.9674 59.3379 56.8445 59.9211 52.98L60.0136 52.3702L59.4038 52.2683L54.1691 51.3982L52.9745 51.2006L58.4004 47.3456L58.8833 47.0054Z" fill="white"/>
<path d="M95.9159 25.7576L95.2888 24.6523L94.7919 25.8203C94.6225 26.2154 94.4569 26.6026 94.2949 26.982C93.7854 28.1688 93.3041 29.2897 92.8479 30.4232C92.6472 30.9201 92.8839 31.4892 92.9607 31.6523C95.7052 37.4662 97.2184 43.7846 97.4053 50.2111C97.4053 50.3882 97.4601 50.9949 97.8442 51.3947C98.7284 52.3134 99.633 53.2164 100.591 54.1712C100.904 54.4847 101.238 54.8155 101.572 55.151L102.566 56.1465L102.643 54.7355C103.209 44.2521 101.009 34.7705 95.9159 25.7576Z" fill="white"/>
</svg>
