<svg width="102" height="103" viewBox="0 0 102 103" fill="none" xmlns="http://www.w3.org/2000/svg">
<path d="M51.1156 1.04304e-05C79.359 0.0177959 102.036 22.7833 102 51.08C101.964 79.4835 79.3768 102.089 51.0622 102.089C22.7299 102.089 -0.0355294 79.4123 4.16279e-05 51.1867C0.0356127 22.7121 22.7299 -0.0177751 51.1156 1.04304e-05ZM5.90483 50.8132C5.88705 75.9264 26.1803 96.6998 50.6888 96.6643C75.6596 96.6287 96.024 76.3176 96.0952 51.3824C96.1663 25.8957 76.3177 5.95816 50.8666 5.94037C26.038 5.9048 5.92262 25.9669 5.90483 50.8132Z" fill="white"/>
<path d="M75.9793 79.0567C71.1772 79.0567 66.6241 79.0567 61.9287 79.0567C61.9287 66.429 61.9287 53.9613 61.9287 41.2625C66.5352 41.2625 71.1594 41.2625 75.9793 41.2625C75.9793 53.7657 75.9793 66.3045 75.9793 79.0567Z" fill="white"/>
<path d="M40.0533 46.189C40.0533 57.1982 40.0533 67.994 40.0533 79.0032C35.3402 79.0032 30.7337 79.0032 25.9316 79.0032C25.9316 68.0829 25.9316 57.216 25.9316 46.189C30.627 46.189 35.1801 46.189 40.0533 46.189Z" fill="white"/>
<path d="M71.8356 21.4138C76.2464 22.2853 80.4793 23.139 85.4237 24.1172C82.4535 28.3146 79.9102 31.9073 77.3135 35.5711C74.3967 31.8717 74.3967 31.8539 69.9681 33.5258C62.6227 36.2825 55.2773 39.0215 47.9674 41.8849C46.1711 42.5964 44.9439 42.3474 43.4499 41.1024C35.1263 34.1305 38.719 34.8063 28.35 38.0788C26.3936 38.7013 24.4372 39.3238 22.5164 40.053C20.7556 40.7111 20.1331 39.8396 19.7774 38.3278C19.4572 36.905 18.1233 35.3577 20.7022 34.5395C25.86 32.9033 30.9645 31.0536 36.1401 29.4884C37.1005 29.2039 38.4522 29.6307 39.4126 30.1287C40.4619 30.6623 41.3512 31.5871 42.2049 32.4408C45.8687 36.0157 47.2738 36.2469 51.9158 34.3617C57.1981 32.2274 62.516 30.1821 67.8516 28.2079C72.6715 26.4115 72.7071 26.4827 71.8356 21.4138Z" fill="white"/>
<path d="M58.0344 52.2717C58.0344 61.2534 58.0344 70.0572 58.0344 79.0389C53.2856 79.0389 48.697 79.0389 43.9482 79.0389C43.9482 70.0572 43.9482 61.2534 43.9482 52.2717C48.697 52.2717 53.2856 52.2717 58.0344 52.2717Z" fill="white"/>
</svg>
