<svg width="103" height="102" viewBox="0 0 103 102" fill="none" xmlns="http://www.w3.org/2000/svg">
<path d="M86.9985 14.8669C92.2601 9.85009 97.3992 4.95564 102.6 0C102.6 13.1538 102.6 26.2465 102.6 39.6451C90.0575 39.6451 77.4543 39.6451 63.8722 39.6451C69.7456 34.4447 75.0683 29.7338 80.3298 25.0229C71.0915 13.8268 51.2078 7.40286 33.9549 15.6011C17.1302 23.6157 8.19778 42.5818 12.7863 60.8748C17.2525 78.6784 34.5667 91.1592 52.7985 90.731C70.0515 90.3027 91.2812 75.9252 91.5871 51.3918C95.1967 51.3918 98.8064 51.3918 102.355 51.3918C105.414 67.5435 89.201 91.098 69.9903 98.4397C46.6193 107.494 20.0668 98.5009 7.34125 77.3324C-5.32315 56.3474 -1.28523 29.4891 17.0078 13.3374C35.3008 -2.87549 65.157 -5.32272 86.9985 14.8669Z" fill="#FEFEFE"/>
<path d="M74.1502 63.9339C72.743 66.2587 71.5194 68.3389 70.1123 70.7249C66.3803 68.5224 62.7706 66.4423 59.1609 64.3009C55.2454 61.9761 51.3298 59.7124 47.4754 57.2652C46.7413 56.7757 45.8235 55.858 45.8235 55.0627C45.7012 46.0691 45.7624 37.0755 45.7624 27.8984C48.6379 27.8984 51.2074 27.8984 54.2665 27.8984C54.2665 32.3034 54.2053 36.7085 54.2665 41.1135C54.3277 44.7231 53.2876 49.0058 54.8783 51.8201C56.3466 54.512 60.5681 55.7357 63.6271 57.5099C66.9309 59.6512 70.4182 61.7314 74.1502 63.9339Z" fill="#FEFEFE"/>
</svg>
