<svg width="93" height="84" viewBox="0 0 93 84" fill="none" xmlns="http://www.w3.org/2000/svg">
<path d="M41.85 18.6667C41.85 28.976 33.5225 37.3333 23.25 37.3333C12.9775 37.3333 4.65 28.976 4.65 18.6667C4.65 8.35735 12.9775 0 23.25 0C33.5225 0 41.85 8.35735 41.85 18.6667ZM32.55 18.6667C32.55 13.512 28.3862 9.33333 23.25 9.33333C18.1138 9.33333 13.95 13.512 13.95 18.6667C13.95 23.8213 18.1138 28 23.25 28C28.3862 28 32.55 23.8213 32.55 18.6667Z" fill="white"/>
<path d="M88.35 39.6667C88.35 48.6873 81.0634 56 72.075 56C63.0866 56 55.8 48.6873 55.8 39.6667C55.8 30.646 63.0866 23.3333 72.075 23.3333C81.0634 23.3333 88.35 30.646 88.35 39.6667ZM79.05 39.6667C79.05 35.8007 75.9272 32.6667 72.075 32.6667C68.2228 32.6667 65.1 35.8007 65.1 39.6667C65.1 43.5327 68.2228 46.6667 72.075 46.6667C75.9272 46.6667 79.05 43.5327 79.05 39.6667Z" fill="white"/>
<path d="M37.2 84V65.3333C37.2 57.6013 30.9544 51.3333 23.25 51.3333C15.5456 51.3333 9.3 57.6013 9.3 65.3333V84H0V65.3333C0 52.4467 10.4094 42 23.25 42C36.0906 42 46.5 52.4467 46.5 65.3333V84H37.2Z" fill="white"/>
<path d="M83.7 81.6667V84H93V81.6667C93 70.0687 83.6316 60.6667 72.075 60.6667C60.5184 60.6667 51.15 70.0687 51.15 81.6667V84H60.45V81.6667C60.45 75.2234 65.6547 70 72.075 70C78.4953 70 83.7 75.2233 83.7 81.6667Z" fill="white"/>
</svg>
