<svg width="95" height="95" viewBox="0 0 95 95" fill="none" xmlns="http://www.w3.org/2000/svg">
<path d="M63.6612 55.3242C65.1411 55.4035 66.4888 55.4035 67.8366 55.5621C69.7921 55.8 71.3513 56.8045 72.5933 58.3111C74.4168 60.4786 76.1873 60.9544 78.83 59.9764C80.1513 59.4742 81.4726 58.972 82.8204 58.4962C88.7927 56.4344 94.9501 60.743 94.9765 67.0604C95.0294 75.704 94.9765 84.3475 94.9765 92.9911C94.9765 94.4713 94.4216 95 92.9417 95C62.657 95 32.3459 95 2.06126 95C0.581381 95 0.0264264 94.4713 0.0264264 92.9647C0 67.3776 0 41.817 0 16.2564C0 14.7497 0.528528 14.1946 2.00841 14.2211C3.75255 14.2475 5.52312 14.1946 7.24084 14.3797C8.4036 14.5118 9.53993 14.9348 10.6234 15.4106C13.0811 16.4679 15.4859 16.5472 17.8907 15.3841C21.8018 13.5074 25.8186 13.1902 29.994 14.3532C33.3766 15.3048 36.812 15.3577 40.2738 14.6969C40.9609 14.5647 41.1988 14.3532 41.1723 13.6396C41.1195 11.2606 41.1459 8.88164 41.1459 6.52911C41.1723 2.80207 43.9207 -0.0262491 47.5147 0.000183756C51.0558 0.0266166 53.8042 2.8285 53.8042 6.50268C53.8306 12.5822 53.8042 18.6354 53.8042 24.7149C53.8042 26.1687 53.6192 26.4595 52.245 27.0146C52.245 29.5786 52.245 32.1426 52.245 34.8387C54.0949 34.8387 55.9447 34.8916 57.7681 34.8123C59.0366 34.7594 59.7765 35.2352 60.3051 36.3718C62.1813 40.231 64.1105 44.0374 66.0396 47.8702C66.4624 48.716 66.4888 49.4561 66.066 50.302C65.2468 51.888 64.4804 53.5532 63.6612 55.3242ZM42.7315 37.9843C41.0931 37.9843 39.5868 37.9314 38.0805 38.0107C37.7369 38.0371 37.2348 38.3279 37.0763 38.6451C35.385 41.9228 33.7465 45.2269 32.1345 48.531C32.0024 48.8217 31.976 49.324 32.1081 49.6147C36.1778 58.2847 40.2738 66.9283 44.3964 75.5983C45.0042 76.867 46.0348 77.5807 47.4618 77.5543C48.836 77.5279 49.8402 76.8406 50.4216 75.5983C54.5705 66.9283 58.7459 58.2583 62.8684 49.5883C63.0006 49.324 63.0006 48.8746 62.8684 48.6103C61.2036 45.2533 59.5387 41.8963 57.8474 38.5393C57.7417 38.3279 57.5303 38.0107 57.3453 38.0107C55.654 37.9842 53.9627 37.9843 52.2186 37.9843C52.2186 40.6011 52.2186 43.0858 52.2186 45.5441C52.2186 48.5045 50.2102 50.6456 47.4618 50.6192C44.7135 50.6192 42.7315 48.4781 42.7315 45.5176C42.7315 43.0594 42.7315 40.5747 42.7315 37.9843ZM28.5405 91.7488C41.2252 91.7488 53.8306 91.7488 66.436 91.7488C66.436 85.4313 66.436 79.1667 66.436 72.9021C66.3039 72.8757 66.2246 72.8228 66.1189 72.8228C62.6834 72.8228 59.2744 72.7964 55.839 72.8492C55.5483 72.8492 55.1519 73.1664 54.9934 73.4572C54.412 74.5674 53.8834 75.704 53.3549 76.8406C52.1657 79.3253 50.1837 80.7262 47.4354 80.7262C44.6342 80.7262 42.6522 79.2989 41.4366 76.7877C40.9081 75.6511 40.406 74.5145 39.7982 73.4043C39.666 73.14 39.2432 72.8757 38.9261 72.8492C37.6048 72.7964 36.2835 72.8228 34.9621 72.8228C32.8216 72.8228 30.7075 72.8228 28.5141 72.8228C28.5405 79.1667 28.5405 85.4049 28.5405 91.7488ZM3.22402 28.5213C3.22402 34.8652 3.22402 41.1562 3.22402 47.3944C10.6234 47.3944 17.9435 47.3944 25.2636 47.3944C25.2636 41.0505 25.2636 34.8123 25.2636 28.5213C17.9171 28.5213 10.597 28.5213 3.22402 28.5213ZM25.2901 72.8757C17.8907 72.8757 10.5441 72.8757 3.25045 72.8757C3.25045 79.2196 3.25045 85.4842 3.25045 91.7488C10.6234 91.7488 17.9435 91.7488 25.2901 91.7488C25.2901 85.4577 25.2901 79.1931 25.2901 72.8757ZM69.7129 72.8492C69.7129 79.1931 69.7129 85.4842 69.7129 91.7223C77.1123 91.7223 84.4324 91.7223 91.7525 91.7223C91.7525 85.3784 91.7525 79.1403 91.7525 72.8492C84.3795 72.8492 77.0858 72.8492 69.7129 72.8492ZM37.9747 69.598C37.9219 69.413 37.869 69.2808 37.8162 69.1751C34.9886 63.2012 32.1345 57.2274 29.3333 51.2271C29.069 50.6985 28.7519 50.6456 28.2498 50.6456C24.3916 50.6456 20.5333 50.6456 16.6751 50.6456C16.3844 50.6456 16.1201 50.672 15.8558 50.6985C15.8558 57.0424 15.8558 63.307 15.8558 69.598C23.2288 69.598 30.5489 69.598 37.9747 69.598ZM3.1976 25.2436C15.9087 25.2436 28.5141 25.2436 41.0931 25.2436C41.0931 22.7325 41.0931 20.2742 41.0931 17.7367C36.6534 18.6882 32.3723 18.2917 28.1177 17.1816C25.3165 16.4414 22.5153 16.7322 19.9255 17.9746C16.1994 19.772 12.5525 19.8777 8.79999 18.0539C7.02942 17.1816 5.12672 17.3402 3.22402 17.4459C3.1976 20.0892 3.1976 22.6267 3.1976 25.2436ZM56.8168 69.5716C68.5765 69.5716 80.1513 69.5716 91.7789 69.5716C91.7789 68.6728 91.8053 67.8534 91.7789 67.034C91.6732 62.884 87.7621 60.135 83.8246 61.4831C82.609 61.906 81.4198 62.3554 80.2041 62.8047C76.0288 64.3907 73.069 63.6506 70.1357 60.2936C69.1051 59.1306 67.863 58.549 66.3039 58.549C65.1411 58.549 64.0048 58.5755 62.842 58.5226C62.2606 58.4962 61.9699 58.7076 61.7321 59.2363C60.86 61.113 59.9615 62.9898 59.063 64.8665C58.3231 66.426 57.6096 67.9591 56.8168 69.5716ZM3.22402 69.5716C6.39519 69.5716 9.51351 69.5716 12.6054 69.5716C12.6054 63.2277 12.6054 56.9631 12.6054 50.6985C9.43423 50.6985 6.36876 50.6985 3.22402 50.6985C3.22402 56.9895 3.22402 63.2277 3.22402 69.5716ZM42.6786 28.5477C37.9219 28.5477 33.218 28.5477 28.5405 28.5477C28.5405 34.8916 28.5405 41.1562 28.5405 47.4472C28.6198 47.5001 28.7255 47.553 28.8048 47.6058C29.0162 47.3151 29.3069 47.0507 29.4654 46.7335C31.1832 43.3237 32.9273 39.9403 34.5657 36.4776C35.1471 35.2617 35.8871 34.733 37.2348 34.8123C39.0318 34.918 40.8288 34.8387 42.6786 34.8387C42.6786 32.6712 42.6786 30.6359 42.6786 28.5477ZM50.6066 9.54246C48.4925 9.54246 46.4312 9.54246 44.3964 9.54246C44.3964 14.3004 44.3964 19.0054 44.3964 23.6841C46.5105 23.6841 48.5453 23.6841 50.6066 23.6841C50.6066 18.9526 50.6066 14.2739 50.6066 9.54246ZM45.9027 26.9353C45.9027 33.3056 45.9027 39.5702 45.9027 45.8084C45.9027 45.9405 45.9027 46.0727 45.9291 46.2049C46.1405 46.9979 46.669 47.4737 47.4883 47.4472C48.281 47.4472 48.7831 46.9979 48.9946 46.2577C49.0738 45.9934 49.0474 45.6762 49.0474 45.3855C49.0474 39.5174 49.0474 33.6493 49.0474 27.8076C49.0474 27.5168 49.021 27.2525 48.9946 26.9353C47.9639 26.9353 46.9862 26.9353 45.9027 26.9353ZM44.3699 6.23835C46.4841 6.23835 48.5453 6.23835 50.6066 6.23835C50.4744 4.38804 49.1795 3.1457 47.4883 3.11926C46.0612 3.11926 44.2907 4.38804 44.3699 6.23835Z" fill="white"/>
</svg>
